G04 EAGLE Gerber RS-274X export*
G75*
%MOMM*%
%FSLAX34Y34*%
%LPD*%
%IN*%
%IPPOS*%
%AMOC8*
5,1,8,0,0,1.08239X$1,22.5*%
G01*
%ADD10C,0.254000*%


D10*
X0Y25400D02*
X97Y23186D01*
X386Y20989D01*
X865Y18826D01*
X1532Y16713D01*
X2380Y14666D01*
X3403Y12700D01*
X4594Y10831D01*
X5942Y9073D01*
X7440Y7440D01*
X9073Y5942D01*
X10831Y4594D01*
X12700Y3403D01*
X14666Y2380D01*
X16713Y1532D01*
X18826Y865D01*
X20989Y386D01*
X23186Y97D01*
X25400Y0D01*
X1384300Y0D01*
X1386514Y97D01*
X1388711Y386D01*
X1390874Y865D01*
X1392987Y1532D01*
X1395035Y2380D01*
X1397000Y3403D01*
X1398869Y4594D01*
X1400627Y5942D01*
X1402261Y7440D01*
X1403758Y9073D01*
X1405106Y10831D01*
X1406297Y12700D01*
X1407320Y14666D01*
X1408168Y16713D01*
X1408835Y18826D01*
X1409314Y20989D01*
X1409603Y23186D01*
X1409700Y25400D01*
X1409700Y622300D01*
X1409603Y624514D01*
X1409314Y626711D01*
X1408835Y628874D01*
X1408168Y630987D01*
X1407320Y633035D01*
X1406297Y635000D01*
X1405106Y636869D01*
X1403758Y638627D01*
X1402261Y640261D01*
X1400627Y641758D01*
X1398869Y643106D01*
X1397000Y644297D01*
X1395035Y645320D01*
X1392987Y646168D01*
X1390874Y646835D01*
X1388711Y647314D01*
X1386514Y647603D01*
X1384300Y647700D01*
X25400Y647700D01*
X23186Y647603D01*
X20989Y647314D01*
X18826Y646835D01*
X16713Y646168D01*
X14666Y645320D01*
X12700Y644297D01*
X10831Y643106D01*
X9073Y641758D01*
X7440Y640261D01*
X5942Y638627D01*
X4594Y636869D01*
X3403Y635000D01*
X2380Y633035D01*
X1532Y630987D01*
X865Y628874D01*
X386Y626711D01*
X97Y624514D01*
X0Y622300D01*
X0Y25400D01*
M02*
