M48
;GenerationSoftware,Autodesk,EAGLE,9.4.2*%
;CreationDate,2019-10-27T18:34:13Z*%
FMAT,2
ICI,OFF
METRIC,TZ,000.000
T10C0.350
T9C0.700
T8C0.737
T7C0.800
T6C0.813
T5C0.864
T4C0.900
T3C1.016
T2C1.300
T1C3.400
%
G90
M71
T1
X5080Y59690
X135890Y59690
X135890Y5080
X5080Y5080
T2
X123651Y60960
X128651Y60960
T3
X12243Y17501
X18745Y17501
X12243Y12979
X18745Y12979
X2591Y17501
X9093Y17501
X2591Y12979
X9093Y12979
T4
X54102Y27940
X51435Y27940
X51435Y35560
X11557Y46990
X19177Y46990
X11557Y44450
X19177Y44450
X11557Y49530
X19177Y49530
X11557Y52070
X19177Y52070
X11557Y54610
X19177Y54610
X11557Y57150
X19177Y57150
X11557Y59690
X19177Y59690
X46101Y3048
X53721Y3048
X46101Y5588
X53721Y5588
X46101Y8128
X53721Y8128
X91313Y15748
X83693Y15748
X91313Y18288
X54102Y35560
X124587Y35052
X83693Y18288
X91313Y13208
X83693Y13208
X91313Y10668
X83693Y10668
X91313Y8128
X83693Y8128
X91313Y5588
X83693Y5588
X91313Y3048
X120777Y3048
X128397Y3048
X120777Y5588
X128397Y5588
X120777Y8128
X128397Y8128
X120777Y10668
X128397Y10668
X120777Y13208
X128397Y13208
X120777Y18288
X128397Y18288
X120777Y15748
X128397Y15748
X83693Y3048
X49149Y46990
X46101Y10668
X49149Y44450
X56769Y44450
X49149Y49530
X56769Y49530
X49149Y52070
X56769Y52070
X49149Y54610
X56769Y54610
X49149Y57150
X56769Y57150
X49149Y59690
X56769Y59690
X53721Y10668
X46101Y13208
X53721Y13208
X46101Y18288
X53721Y18288
X46101Y15748
X53721Y15748
X128032Y31242
X130032Y31242
X87376Y46990
X94996Y46990
X87376Y44450
X94996Y44450
X87376Y49530
X94996Y49530
X87376Y52070
X94996Y52070
X124587Y27432
X122047Y27432
X122047Y35052
X56769Y46990
X56642Y35560
X56642Y27940
X87376Y54610
X94996Y54610
X87376Y57150
X94996Y57150
X87376Y59690
X94996Y59690
T5
X109220Y44450
X109220Y41910
X117602Y41910
X117602Y44450
X117602Y46990
X117602Y49530
X117602Y52070
X117602Y54610
X117602Y57150
X117602Y59690
X106172Y41910
X106172Y44450
X106172Y46990
X106172Y49530
X106172Y52070
X106172Y54610
X106172Y57150
X106172Y59690
X97790Y59690
X97790Y57150
X97790Y54610
X97790Y52070
X97790Y49530
X97790Y46990
X97790Y44450
X97790Y41910
X42672Y20828
X42672Y18288
X42672Y15748
X42672Y13208
X42672Y10668
X42672Y8128
X42672Y5588
X42672Y3048
X34290Y3048
X34290Y5588
X109220Y46990
X109220Y49530
X109220Y52070
X109220Y54610
X109220Y57150
X109220Y59690
X117602Y20828
X117602Y18288
X117602Y15748
X117602Y13208
X117602Y10668
X117602Y8128
X117602Y5588
X117602Y3048
X109220Y3048
X109220Y5588
X34290Y8128
X34290Y10668
X34290Y13208
X109220Y8128
X109220Y10668
X109220Y13208
X109220Y15748
X109220Y18288
X109220Y20828
X97790Y3048
X71501Y59690
X71501Y57150
X71501Y54610
X71501Y52070
X71501Y49530
X71501Y46990
X71501Y44450
X71501Y41910
X79883Y41910
X79883Y44450
X79883Y46990
X79883Y49530
X79883Y52070
X79883Y54610
X79883Y57150
X79883Y59690
X68453Y41910
X68453Y44450
X68453Y46990
X68453Y49530
X68453Y52070
X68453Y54610
X68453Y57150
X68453Y59690
X60071Y59690
X60071Y57150
X60071Y54610
X60071Y52070
X60071Y49530
X60071Y46990
X60071Y44450
X60071Y41910
X34290Y15748
X34290Y18288
X34290Y20828
X22860Y3048
X22860Y5588
X22860Y8128
X22860Y10668
X22860Y13208
X22860Y15748
X22860Y18288
X97790Y5588
X97790Y8128
X97790Y10668
X97790Y13208
X97790Y15748
X97790Y18288
X97790Y20828
X106172Y20828
X106172Y18288
X106172Y15748
X106172Y13208
X106172Y10668
X106172Y8128
X106172Y5588
X68707Y3048
X68707Y5588
X68707Y8128
X68707Y10668
X68707Y13208
X68707Y15748
X68707Y18288
X68707Y20828
X60325Y20828
X60325Y18288
X60325Y15748
X60325Y13208
X60325Y10668
X60325Y8128
X60325Y5588
X60325Y3048
X71755Y20828
X71755Y18288
X71755Y15748
X71755Y13208
X71755Y10668
X71755Y8128
X71755Y5588
X71755Y3048
X80137Y3048
X80137Y5588
X80137Y8128
X80137Y10668
X80137Y13208
X80137Y15748
X80137Y18288
X80137Y20828
X22860Y20828
X31242Y20828
X31242Y18288
X31242Y15748
X31242Y13208
X31242Y10668
X31242Y8128
X31242Y5588
X31242Y3048
X22606Y41910
X106172Y3048
X22606Y44450
X22606Y46990
X22606Y49530
X22606Y52070
X22606Y54610
X22606Y57150
X22606Y59690
X30988Y59690
X30988Y57150
X30988Y54610
X121666Y45085
X30988Y52070
X30988Y49530
X30988Y46990
X30988Y44450
X30988Y41910
X42418Y59690
X42418Y57150
X42418Y54610
X42418Y52070
X42418Y49530
X34036Y59690
X34036Y57150
X34036Y54610
X34036Y52070
X34036Y49530
X34036Y46990
X34036Y44450
X34036Y41910
X42418Y41910
X42418Y44450
X42418Y46990
T6
X85090Y36703
X48895Y36830
X85090Y24003
X130048Y45085
X130048Y47625
X8890Y39243
X8890Y36703
X8890Y24003
X16510Y24003
X8890Y34163
X8890Y31623
X8890Y26543
X8890Y29083
X16510Y26543
X16510Y29083
X16510Y31623
X16510Y34163
X16510Y36703
X16510Y39243
X130048Y50165
X130048Y52705
X121666Y52705
X121666Y50165
X121666Y47625
X46355Y26670
X46355Y36830
X48895Y26670
X92710Y24003
X92710Y26543
X92710Y39243
X85090Y39243
X92710Y29083
X92710Y31623
X92710Y36703
X92710Y34163
X85090Y34163
X85090Y31623
X85090Y29083
X85090Y26543
T7
X24892Y36449
X29972Y26289
X29972Y28829
X29972Y31369
X29972Y33909
X29972Y36449
X24892Y33909
X24892Y31369
X24892Y28829
X24892Y26289
X40132Y33909
X77724Y36449
X115316Y36449
X115316Y33909
X115316Y31369
X115316Y28829
X115316Y26289
X110236Y36449
X110236Y33909
X110236Y31369
X77724Y33909
X77724Y31369
X77724Y28829
X77724Y26289
X72644Y36449
X72644Y33909
X72644Y31369
X72644Y28829
X72644Y26289
X67564Y36449
X67564Y33909
X67564Y31369
X67564Y28829
X67564Y26289
X62484Y36449
X62484Y33909
X62484Y31369
X62484Y28829
X62484Y26289
X110236Y28829
X110236Y26289
X40132Y36449
X105156Y36449
X105156Y33909
X105156Y31369
X105156Y28829
X105156Y26289
X100076Y36449
X100076Y33909
X100076Y31369
X100076Y28829
X100076Y26289
X35052Y26289
X35052Y28829
X35052Y31369
X35052Y33909
X35052Y36449
X40132Y26289
X40132Y28829
X40132Y31369
T8
X128549Y38827
X125857Y38827
X123165Y38827
T9
X57658Y3048
X56769Y39370
X56769Y41910
X74422Y62738
X76962Y62738
X86233Y20828
X95377Y39370
X95377Y41910
X112141Y62611
X114681Y62611
X123317Y20828
X120777Y20828
X95504Y5588
X39497Y62738
X36957Y62738
X19431Y41910
X19431Y39370
X20066Y3048
X20066Y5588
X46101Y20828
X48641Y20828
X95504Y3048
X124587Y42418
X122047Y42418
X126746Y55245
X124206Y55245
X83693Y20828
X82296Y23876
X82296Y26416
X13970Y41783
X11430Y41783
X57658Y5588
T10
X70866Y38100
X88288Y36703
X57277Y26543
X70231Y30099
X103124Y62357
X101346Y62357
X102235Y60960
X38481Y53213
X39370Y52070
X37338Y52070
X75565Y53467
X76200Y52070
X74930Y52070
X71501Y27559
X41275Y21844
X113030Y38100
M30